<svg width="32" height="32" viewBox="0 0 32 32" xmlns="http://www.w3.org/2000/svg">
  <!-- Трезубец Maserati -->
  <g fill="black">
    <!-- Центральный зубец -->
    <path d="M16 2 L14 10 L18 10 Z"/>
    <rect x="15" y="10" width="2" height="8"/>
    
    <!-- Левый зубец -->
    <path d="M8 6 C8 6, 10 8, 12 10 C12 12, 10 14, 8 16 C6 14, 4 12, 4 10 C6 8, 8 6, 8 6"/>
    
    <!-- Правый зубец -->
    <path d="M24 6 C24 6, 22 8, 20 10 C20 12, 22 14, 24 16 C26 14, 28 12, 28 10 C26 8, 24 6, 24 6"/>
    
    <!-- Основание трезубца -->
    <rect x="6" y="18" width="20" height="1.5"/>
    <rect x="7" y="19.5" width="18" height="1"/>
    <rect x="8" y="20.5" width="16" height="1"/>
    
    <!-- Декоративные элементы по бокам -->
    <rect x="6" y="22" width="2" height="2" rx="1"/>
    <rect x="24" y="22" width="2" height="2" rx="1"/>
    
    <!-- Центральная часть -->
    <path d="M10 22 L22 22 L20 26 L12 26 Z"/>
    
    <!-- Нижняя часть -->
    <rect x="13" y="26" width="6" height="2"/>
    <rect x="14" y="28" width="4" height="2"/>
  </g>
</svg>